<svg width="64" height="64" viewBox="0 0 64 64" fill="none" xmlns="http://www.w3.org/2000/svg">
<rect x="34.1901" y="16.7146" width="12.5827" height="26.1655" transform="rotate(38.4538 34.1901 16.7146)" stroke="#50ECBF"/>
<line x1="23.2101" y1="40.4691" x2="13.9953" y2="52.0728" stroke="#50ECBF"/>
<path d="M45.1499 24.5354L33.944 15.6366L47.2527 10.3817L45.1499 24.5354Z" stroke="#50ECBF"/>
<line x1="30.4121" y1="22.0851" x2="40.8213" y2="20.8906" stroke="#50ECBF"/>
<line x1="26.5726" y1="26.92" x2="43.9214" y2="24.9292" stroke="#50ECBF"/>
<line x1="22.7593" y1="31.7526" x2="39.3402" y2="30.7288" stroke="#50ECBF"/>
<line x1="19.7167" y1="35.6196" x2="35.5297" y2="35.5627" stroke="#50ECBF"/>
<line x1="21.0649" y1="39.8576" x2="32.4412" y2="39.431" stroke="#50ECBF"/>
<path d="M28.5067 13.1396L27.8797 14.8207L29.2848 15.9365L27.4922 15.8597L26.8652 17.5408L26.3843 15.8122L24.5917 15.7354L26.0871 14.7439L25.6062 13.0153L27.0113 14.1311L28.5067 13.1396Z" fill="#50ECBF"/>
<path d="M24.781 22.7951L24.3107 24.056L25.3645 24.8929L24.0201 24.8352L23.5498 26.0961L23.1891 24.7996L21.8447 24.742L22.9662 23.9984L22.6056 22.7019L23.6594 23.5388L24.781 22.7951Z" fill="#50ECBF"/>
<path d="M35.8443 42.6183L35.1088 44.2132L36.1626 45.0501L34.6542 45.1989L33.9186 46.7939L33.7219 45.2909L32.2135 45.4398L33.6003 44.3621L33.4036 42.8591L34.4575 43.696L35.8443 42.6183Z" fill="#50ECBF"/>
<path d="M47.6756 34.6691L46.7833 36.6843L48.1884 37.8002L46.2318 37.9298L45.3395 39.945L45.0226 38.01L43.066 38.1396L44.8267 36.814L44.5098 34.8789L45.9149 35.9947L47.6756 34.6691Z" fill="#50ECBF"/>
</svg>
